<?xml version="1.0" encoding="UTF-8"?>
<svg version="1.1" xmlns="http://www.w3.org/2000/svg" width="130" height="100">
<path d="M0 0 C0.66 0 1.32 0 2 0 C2.41882243 2.05795482 2.80919281 4.12171348 3.1875 6.1875 C3.40792969 7.33605469 3.62835938 8.48460937 3.85546875 9.66796875 C4.02111592 13.48680753 3.25350283 14.98586901 1 18 C1.77085938 18.54269531 2.54171875 19.08539062 3.3359375 19.64453125 C4.33882813 20.35996094 5.34171875 21.07539063 6.375 21.8125 C7.37273437 22.52019531 8.37046875 23.22789063 9.3984375 23.95703125 C12 26 12 26 14 29 C14.33 28.34 14.66 27.68 15 27 C19.87551793 28.62517264 21.64548387 32.59915047 24 37 C27.1421849 44.84558117 28.66231753 52.57482237 29 61 C30.64951226 60.04801289 32.29451508 59.08820855 33.9375 58.125 C35.31228516 57.32449219 35.31228516 57.32449219 36.71484375 56.5078125 C39.10700296 55.20287437 39.10700296 55.20287437 40 53 C40.66 53 41.32 53 42 53 C42.54133971 59.63141145 41.89897323 63.54143747 38 69 C35 71 35 71 32 71 C32 71.66 32 72.32 32 73 C32.8971875 73.309375 32.8971875 73.309375 33.8125 73.625 C36.87311475 75.54881498 37.6750005 77.68750124 39 81 C39 82.32 39 83.64 39 85 C37.53932801 84.54917531 36.08151968 84.08906463 34.625 83.625 C33.81289062 83.36976562 33.00078125 83.11453125 32.1640625 82.8515625 C30 82 30 82 28 80 C27.01 82.97 26.02 85.94 25 89 C23.515 88.505 23.515 88.505 22 88 C22 87.34 22 86.68 22 86 C21.34 85.67 20.68 85.34 20 85 C20 84.01 20 83.02 20 82 C19.54625 82.680625 19.0925 83.36125 18.625 84.0625 C11.24018582 92.32645872 1.0011895 97.69001632 -10 99 C-12.75742498 98.98917596 -15.44189269 98.9170139 -18.1875 98.75 C-19.25387695 98.70939453 -19.25387695 98.70939453 -20.34179688 98.66796875 C-25.5304084 98.36534042 -25.5304084 98.36534042 -27.98828125 96.453125 C-28.32214844 95.97359375 -28.65601563 95.4940625 -29 95 C-26.12806128 93.56403064 -23.69883025 94.02069032 -20.5 94.125 C-8.96921786 94.17206442 0.56892066 90.77783485 9.23046875 82.99609375 C13.59732745 78.41621755 20 70.72190311 20 64 C19.01 64 18.02 64 17 64 C17.04640625 63.03320312 17.0928125 62.06640625 17.140625 61.0703125 C17.46391032 49.40894905 15.61269158 39.99715039 7.3203125 31.22265625 C-0.54221795 23.75483114 -8.35767884 21.44230355 -19.08447266 21.51391602 C-24.29917985 21.71715907 -28.51605842 22.84851665 -33.1796875 25.125 C-35 26 -35 26 -37 26 C-37 25.34 -37 24.68 -37 24 C-42.28067631 28.01757506 -45.98576657 32.07090348 -49 38 C-49.48146484 38.93005859 -49.48146484 38.93005859 -49.97265625 39.87890625 C-53.69245417 48.71991433 -53.72718771 61.61398218 -50.375 70.5625 C-47.25565453 76.96711358 -43.36827992 83.251137 -38 88 C-38.99 88.33 -39.98 88.66 -41 89 C-43.6875 87.0625 -43.6875 87.0625 -46 85 C-46.680625 85.804375 -47.36125 86.60875 -48.0625 87.4375 C-53.07350565 91.75354866 -60.71134157 90.91199079 -67 91 C-66.21616433 87.13857796 -64.57189568 84.98671756 -62 82 C-62.59167969 81.81566406 -63.18335938 81.63132812 -63.79296875 81.44140625 C-69.85502266 79.21634568 -72.37297388 76.79956136 -75.22265625 71.0234375 C-76 69 -76 69 -76 67 C-69.08336373 68.09890483 -62.57263201 69.56569185 -56 72 C-56.680625 70.3603125 -56.680625 70.3603125 -57.375 68.6875 C-59.71027424 62.39678519 -61.69923015 55.94675563 -60.125 49.3125 C-59.75375 48.549375 -59.3825 47.78625 -59 47 C-59.7425 46.95875 -60.485 46.9175 -61.25 46.875 C-64 46 -64 46 -66.4375 43.5 C-68.32630033 39.26908726 -67.93274953 37.22656187 -66.87109375 32.85546875 C-66.58363281 32.24316406 -66.29617187 31.63085938 -66 31 C-65.01 30.67 -64.02 30.34 -63 30 C-61.35 33.3 -59.7 36.6 -58 40 C-57.39865234 38.83984375 -57.39865234 38.83984375 -56.78515625 37.65625 C-50.43532141 26.02208548 -42.95750478 19.31759436 -30.625 14.75 C-26.03180546 13.79968389 -21.67095784 13.8308305 -17 14 C-17 14.33 -17 14.66 -17 15 C-14.69 15 -12.38 15 -10 15 C-10.78130071 12.50447516 -10.78130071 12.50447516 -12 10 C-12.99 9.67 -13.98 9.34 -15 9 C-15 8.34 -15 7.68 -15 7 C-9.375 6.75 -9.375 6.75 -6 9 C-5.59007813 8.3503125 -5.18015625 7.700625 -4.7578125 7.03125 C-4.21898438 6.1959375 -3.68015625 5.360625 -3.125 4.5 C-2.59132813 3.6646875 -2.05765625 2.829375 -1.5078125 1.96875 C-1.01023437 1.3190625 -0.51265625 0.669375 0 0 Z M-4 15 C-3.67 15.99 -3.34 16.98 -3 18 C-2.34 17.67 -1.68 17.34 -1 17 C-1.99 16.34 -2.98 15.68 -4 15 Z M16 31 C17 33 17 33 17 33 Z M17 33 C18 35 18 35 18 35 Z M18 35 C19 37 19 37 19 37 Z M19 37 C20 39 20 39 20 39 Z M20 40 C21 43 21 43 21 43 Z M25 70 C26 72 26 72 26 72 Z M24 73 C25 75 25 75 25 75 Z M23 75 C24 77 24 77 24 77 Z M-53 77 C-53.33 77.66 -53.66 78.32 -54 79 C-54.99 79.66 -55.98 80.32 -57 81 C-54.36 81.33 -51.72 81.66 -49 82 C-49.96885372 80.31503702 -50.96986723 78.64821244 -52 77 C-52.33 77 -52.66 77 -53 77 Z " fill="#0A64A1" transform="translate(80,0)"/>
<path d="M0 0 C0.33 0 0.66 0 1 0 C0.95875 1.299375 0.9175 2.59875 0.875 3.9375 C0.96118194 17.70506554 7.55874524 25.52684467 16.2421875 35.71484375 C18 38 18 38 18 40 C26.25563559 31.98828092 36.61232284 21.33009702 37.1171875 9.1796875 C37.12416948 6.44973298 37.08738727 3.7284249 37 1 C40 2 40 2 41.6875 4.6875 C45.19227845 13.85240194 43.50932656 23.9478288 39.74609375 32.7109375 C36.77804898 38.30175114 33.10775944 43.2946039 29.27099609 48.31445312 C28.02746614 49.96357545 26.82965662 51.63666902 25.64453125 53.328125 C24.58298828 54.83632812 24.58298828 54.83632812 23.5 56.375 C22.8709375 57.26960938 22.241875 58.16421875 21.59375 59.0859375 C21.0678125 59.71757813 20.541875 60.34921875 20 61 C19.34 61 18.68 61 18 61 C16.53771223 59.0917448 15.19748053 57.18980988 13.875 55.1875 C13.06774101 53.98868345 12.25912239 52.79078145 11.44921875 51.59375 C10.83699463 50.68689453 10.83699463 50.68689453 10.21240234 49.76171875 C8.43946725 47.18550053 6.56145431 44.69079356 4.6875 42.1875 C-2.50872435 32.31593976 -6.49276933 22.41632841 -5 10 C-2.60822511 2.60822511 -2.60822511 2.60822511 0 0 Z " fill="#0966A4" transform="translate(44,27)"/>
<path d="M0 0 C-1.24727541 3.74182623 -2.22476209 3.89492745 -5.625 5.6875 C-14.5499675 10.86932849 -20.67290806 18.8964165 -23.54418945 28.89501953 C-26.29770551 41.61104282 -23.8489659 53.11482261 -17 63.875 C-14.90591398 66.87794062 -12.75520603 69.56270236 -10 72 C-10.99 72.33 -11.98 72.66 -13 73 C-15.6875 71.0625 -15.6875 71.0625 -18 69 C-18.680625 69.804375 -19.36125 70.60875 -20.0625 71.4375 C-25.07350565 75.75354866 -32.71134157 74.91199079 -39 75 C-38.21616433 71.13857796 -36.57189568 68.98671756 -34 66 C-34.59167969 65.81566406 -35.18335938 65.63132812 -35.79296875 65.44140625 C-41.85502266 63.21634568 -44.37297388 60.79956136 -47.22265625 55.0234375 C-48 53 -48 53 -48 51 C-41.08336373 52.09890483 -34.57263201 53.56569185 -28 56 C-28.680625 54.3603125 -28.680625 54.3603125 -29.375 52.6875 C-31.71027424 46.39678519 -33.69923015 39.94675563 -32.125 33.3125 C-31.75375 32.549375 -31.3825 31.78625 -31 31 C-31.7425 30.95875 -32.485 30.9175 -33.25 30.875 C-36 30 -36 30 -38.4375 27.5 C-40.32630033 23.26908726 -39.93274953 21.22656187 -38.87109375 16.85546875 C-38.58363281 16.24316406 -38.29617187 15.63085938 -38 15 C-37.01 14.67 -36.02 14.34 -35 14 C-33.35 17.3 -31.7 20.6 -30 24 C-29.39865234 22.83984375 -29.39865234 22.83984375 -28.78515625 21.65625 C-24.151657 13.16675477 -19.03431881 7.35621254 -11 2 C-8.80859375 1.3671875 -8.80859375 1.3671875 -6.4375 0.875 C-5.65246094 0.70742188 -4.86742187 0.53984375 -4.05859375 0.3671875 C-2 0 -2 0 0 0 Z M-25 61 C-25.33 61.66 -25.66 62.32 -26 63 C-26.99 63.66 -27.98 64.32 -29 65 C-26.36 65.33 -23.72 65.66 -21 66 C-21.96885372 64.31503702 -22.96986723 62.64821244 -24 61 C-24.33 61 -24.66 61 -25 61 Z " fill="#0F659F" transform="translate(52,16)"/>
<path d="M0 0 C0.99 0.33 1.98 0.66 3 1 C3 1.66 3 2.32 3 3 C3.78890625 3.37898438 3.78890625 3.37898438 4.59375 3.765625 C7.63000226 5.32318298 10.56302277 7.01206393 13.5 8.75 C14.6240625 9.40484375 15.748125 10.0596875 16.90625 10.734375 C21.51148941 14.10689881 23.66717896 17.28042463 24.75 22.875 C24.87375 24.421875 24.87375 24.421875 25 26 C24.01 26 23.02 26 22 26 C20.95107762 24.36368108 19.95093297 22.69514137 19 21 C18.34 20.67 17.68 20.34 17 20 C17 19.34 17 18.68 17 18 C15.35 17.67 13.7 17.34 12 17 C15.94291645 22.8845041 20.1154959 27.05708355 26 31 C25.34 31.66 24.68 32.32 24 33 C14.00584763 29.70274891 6.82077073 24.96667006 1.96875 15.41015625 C-0.04442225 10.4015785 -1.74071589 5.22214767 0 0 Z " fill="#3BC8BB" transform="translate(29,58)"/>
<path d="M0 0 C0.53078851 8.49261614 -0.72393922 14.52644645 -6.1875 21.1875 C-10.83171488 26.18518578 -16.45837006 29.94405916 -23 32 C-23.99 32 -24.98 32 -26 32 C-24.83761572 28.51284715 -23.69583905 28.10746924 -20.69921875 26.25 C-17.62628233 23.98944907 -15.3558611 20.97406578 -13 18 C-16.62613199 18.56959153 -18.25517741 19.92374534 -20.75 22.5625 C-21.36359375 23.20316406 -21.9771875 23.84382813 -22.609375 24.50390625 C-23.06828125 24.99761719 -23.5271875 25.49132812 -24 26 C-24.66 25.01 -25.32 24.02 -26 23 C-23.13189272 14.07906892 -18.11236666 10.49050556 -10.375 6.0078125 C-6.99379419 4.1024044 -6.99379419 4.1024044 -4.1875 1.7421875 C-2 0 -2 0 0 0 Z " fill="#3AC9BC" transform="translate(96,60)"/>
<path d="M0 0 C0.66 0 1.32 0 2 0 C2.54133971 6.63141145 1.89897323 10.54143747 -2 16 C-5 18 -5 18 -8 18 C-8 18.66 -8 19.32 -8 20 C-7.1028125 20.309375 -7.1028125 20.309375 -6.1875 20.625 C-3.12688525 22.54881498 -2.3249995 24.68750124 -1 28 C-1 29.32 -1 30.64 -1 32 C-2.46067199 31.54917531 -3.91848032 31.08906463 -5.375 30.625 C-6.18710938 30.36976562 -6.99921875 30.11453125 -7.8359375 29.8515625 C-10 29 -10 29 -12 27 C-12.99 29.97 -13.98 32.94 -15 36 C-15.99 35.67 -16.98 35.34 -18 35 C-18 34.34 -18 33.68 -18 33 C-18.66 32.67 -19.32 32.34 -20 32 C-18.36164384 25.57260274 -18.36164384 25.57260274 -16.5 22.625 C-15.02482815 20.04344926 -14.62891519 18.38087364 -14.125 15.5 C-13.20340795 10.98195115 -11.7124571 8.88746664 -8 6 C-5.6970026 4.60748994 -3.35110803 3.31119487 -1 2 C-0.67 1.34 -0.34 0.68 0 0 Z " fill="#41C4B7" transform="translate(120,53)"/>
<path d="M0 0 C17.57940854 2.79299014 17.57940854 2.79299014 22.125 6.9375 C23.17693396 9.41705862 22.97113178 10.52802821 22 13 C23.98 13.99 25.96 14.98 28 16 C28 20 28 20 26.484375 21.70703125 C23.13613164 23.44959187 19.94682073 23.56520442 16.25 23.6875 C15.20392578 23.73874023 15.20392578 23.73874023 14.13671875 23.79101562 C12.42502892 23.87308295 10.7125424 23.93822919 9 24 C9.78383567 20.13857796 11.42810432 17.98671756 14 15 C13.11248047 14.72349609 13.11248047 14.72349609 12.20703125 14.44140625 C6.14497734 12.21634568 3.62702612 9.79956136 0.77734375 4.0234375 C0 2 0 2 0 0 Z " fill="#37CCBE" transform="translate(4,67)"/>
<path d="M0 0 C2.93200693 2.08326808 3.82319306 3.45779204 4.9375 6.875 C5.01753108 10.87655386 4.32070159 12.73651339 2 16 C-1.25 18.0625 -1.25 18.0625 -5 19 C-9.73654299 17.89480663 -11.45587494 16.83219127 -14.125 12.75 C-15.23509381 7.9924551 -14.53737024 6.12322664 -12 2 C-8.02783925 -1.53080955 -5.01955241 -1.36896884 0 0 Z " fill="#35CEC1" transform="translate(68,38)"/>
<path d="M0 0 C4.87842973 1.62614324 6.63939272 5.60012465 9 10 C12.48694718 18.50902833 13.70059907 26.85330168 14 36 C13.34 36 12.68 36 12 36 C11.67 39.3 11.34 42.6 11 46 C10.34 46 9.68 46 9 46 C9.16371094 44.9171875 9.32742187 43.834375 9.49609375 42.71875 C10.17178024 37.31325808 10.1088986 31.93934383 10.0625 26.5 C10.05798828 25.48679687 10.05347656 24.47359375 10.04882812 23.4296875 C10.03714593 20.95306173 10.02076582 18.47656343 10 16 C9.34 16 8.68 16 8 16 C8 21.61 8 27.22 8 33 C7.34 33 6.68 33 6 33 C5.67 34.32 5.34 35.64 5 37 C4.01 37 3.02 37 2 37 C2.03480469 36.03320312 2.06960937 35.06640625 2.10546875 34.0703125 C2.27037208 26.13924746 1.96174861 19.49251881 -1 12 C-0.34 12 0.32 12 1 12 C1.66 13.65 2.32 15.3 3 17 C4.14512134 12.50102669 4.14512134 12.50102669 3.17578125 8.08203125 C2.13842051 6.37493585 1.07034765 4.68660841 0 3 C0 2.01 0 1.02 0 0 Z M5 13 C6 16 6 16 6 16 Z " fill="#1C6496" transform="translate(95,27)"/>
<path d="M0 0 C0.66 0 1.32 0 2 0 C2.41882243 2.05795482 2.80919281 4.12171348 3.1875 6.1875 C3.40792969 7.33605469 3.62835938 8.48460937 3.85546875 9.66796875 C4.02111592 13.48680753 3.25350283 14.98586901 1 18 C0.13375 17.4740625 0.13375 17.4740625 -0.75 16.9375 C-2.93342496 15.73236007 -2.93342496 15.73236007 -4.9375 16.6875 C-5.618125 16.790625 -6.29875 16.89375 -7 17 C-9.75 14.6875 -9.75 14.6875 -12 12 C-12 11.34 -12 10.68 -12 10 C-12.99 9.67 -13.98 9.34 -15 9 C-15 8.34 -15 7.68 -15 7 C-9.375 6.75 -9.375 6.75 -6 9 C-5.59007813 8.3503125 -5.18015625 7.700625 -4.7578125 7.03125 C-4.21898438 6.1959375 -3.68015625 5.360625 -3.125 4.5 C-2.59132813 3.6646875 -2.05765625 2.829375 -1.5078125 1.96875 C-1.01023437 1.3190625 -0.51265625 0.669375 0 0 Z " fill="#38C9BC" transform="translate(80,0)"/>
<path d="M0 0 C0.66 0 1.32 0 2 0 C2.53152908 6.5112312 2.28609576 10.87759288 -2 16 C-5.57758663 17.42340924 -9.15809436 18 -13 18 C-13.41199749 13.79762558 -13.55832494 11.72751431 -10.9375 8.3125 C-7.74852078 5.802027 -4.5395186 3.9739623 -1 2 C-0.67 1.34 -0.34 0.68 0 0 Z " fill="#36CBBE" transform="translate(120,53)"/>
<path d="M0 0 C0 0.33 0 0.66 0 1 C0.95261719 1.12117187 1.90523437 1.24234375 2.88671875 1.3671875 C4.14097656 1.53476563 5.39523438 1.70234375 6.6875 1.875 C7.92886719 2.03742187 9.17023438 2.19984375 10.44921875 2.3671875 C13.57795295 2.92478369 16.12148102 3.69008123 19 5 C16 6 16 6 13.125 5.0625 C6.95531804 3.10303019 -0.87429434 2.95809811 -7 5 C-2.71 5.33 1.58 5.66 6 6 C6 6.33 6 6.66 6 7 C5.10539062 7.02578125 4.21078125 7.0515625 3.2890625 7.078125 C-3.80608072 7.41094622 -9.64456 8.15251881 -16.109375 11.16015625 C-18 12 -18 12 -20 12 C-19.375 9.625 -19.375 9.625 -18 7 C-16.02111039 6.27306096 -14.02045442 5.60183749 -12 5 C-11.67 4.01 -11.34 3.02 -11 2 C-11.7425 2.350625 -12.485 2.70125 -13.25 3.0625 C-16.21122875 4.0720098 -17.12062561 3.87980884 -20 3 C-13.16914355 0.55833216 -7.2484945 -0.41640288 0 0 Z " fill="#1C6393" transform="translate(63,14)"/>
<path d="M0 0 C0.66 0 1.32 0 2 0 C7.5321244 9.51372259 7.5321244 9.51372259 6.8125 14.125 C6.544375 15.07375 6.27625 16.0225 6 17 C2.34719501 16.79706639 1.1588275 16.1629 -1.4375 13.5 C-3.52358701 8.8271651 -2.71406961 5.70626048 -1 1 C-0.67 0.67 -0.34 0.34 0 0 Z " fill="#38CABD" transform="translate(15,30)"/>
<path d="M0 0 C2.28909941 2.28909941 3.34753756 4.49145915 4.8125 7.375 C7.0642124 11.60247965 8.99997578 14.25712625 13 17 C13.33 17.99 13.66 18.98 14 20 C7.94057802 19.04977246 3.28411704 13.78092765 -0.47265625 9.20703125 C-3 5.53830645 -3 5.53830645 -3 3 C-2.34 3 -1.68 3 -1 3 C-0.67 2.01 -0.34 1.02 0 0 Z " fill="#1E6696" transform="translate(28,69)"/>
<path d="M0 0 C-2.97 0.99 -5.94 1.98 -9 3 C-6.36 3.33 -3.72 3.66 -1 4 C-1 4.33 -1 4.66 -1 5 C-5.79692785 5.99402586 -10.32420241 6.04583193 -15.1875 5.75 C-15.89841797 5.72292969 -16.60933594 5.69585937 -17.34179688 5.66796875 C-22.5304084 5.36534042 -22.5304084 5.36534042 -24.98828125 3.453125 C-25.32214844 2.97359375 -25.65601563 2.4940625 -26 2 C-23.10428413 0.55214206 -20.59875713 0.98311412 -17.375 1.0625 C-12.81410717 1.10932642 -3.67551148 -1.83775574 0 0 Z " fill="#236794" transform="translate(77,93)"/>
<path d="M0 0 C0.33 0 0.66 0 1 0 C0.979375 1.299375 0.95875 2.59875 0.9375 3.9375 C0.92995028 8.69382325 1.40112883 13.28388953 2 18 C1.34 17.67 0.68 17.34 0 17 C-0.73075648 14.6859378 -1.40138258 12.35171131 -2 10 C-3.66342837 11.66342837 -3.36048097 13.7825709 -3.5625 16.0625 C-3.64628906 16.98160156 -3.73007812 17.90070312 -3.81640625 18.84765625 C-3.87699219 19.55792969 -3.93757813 20.26820312 -4 21 C-4.33 21 -4.66 21 -5 21 C-5.51309148 13.37489044 -4.86652627 7.67713372 -1 1 C-0.67 0.67 -0.34 0.34 0 0 Z " fill="#246491" transform="translate(44,27)"/>
<path d="M0 0 C0.83144531 0.05671875 1.66289063 0.1134375 2.51953125 0.171875 C4.55544876 0.3122831 6.59035843 0.46717665 8.625 0.625 C8.625 0.955 8.625 1.285 8.625 1.625 C7.73039062 1.65078125 6.83578125 1.6765625 5.9140625 1.703125 C-1.18108072 2.03594622 -7.01956 2.77751881 -13.484375 5.78515625 C-15.375 6.625 -15.375 6.625 -17.375 6.625 C-16.75 4.25 -16.75 4.25 -15.375 1.625 C-10.20162196 -0.83235457 -5.54197238 -0.44194357 0 0 Z " fill="#2A648E" transform="translate(60.375,19.375)"/>
<path d="M0 0 C3.66161578 1.22053859 4.16270474 2.36782304 6.1875 5.5625 C6.71730469 6.38878906 7.24710937 7.21507812 7.79296875 8.06640625 C8.19128906 8.70449219 8.58960937 9.34257813 9 10 C8.67 10.66 8.34 11.32 8 12 C7.67 11.67 7.34 11.34 7 11 C6.67 11.66 6.34 12.32 6 13 C4 12 4 12 3 9.125 C2.67 8.09375 2.34 7.0625 2 6 C1.34 5.01 0.68 4.02 0 3 C0 2.01 0 1.02 0 0 Z " fill="#306B92" transform="translate(95,27)"/>
<path d="M0 0 C0.33 0.66 0.66 1.32 1 2 C0.39671875 1.95359375 -0.2065625 1.9071875 -0.828125 1.859375 C-5.94248703 1.57681445 -5.94248703 1.57681445 -10.5 3.625 C-12.27533915 6.43595366 -12.70099803 8.71097835 -13 12 C-13.66 11.01 -14.32 10.02 -15 9 C-13.78001181 4.98121536 -12.88380011 2.7856001 -9.75 0 C-6.12883846 -1.31678601 -3.70166169 -0.92541542 0 0 Z " fill="#46BAAF" transform="translate(68,38)"/>
<path d="M0 0 C0.66 0 1.32 0 2 0 C2.125 7.75 2.125 7.75 1 10 C-0.32 9.34 -1.64 8.68 -3 8 C-1.125 1.125 -1.125 1.125 0 0 Z " fill="#37CABE" transform="translate(103,77)"/>
<path d="M0 0 C3.63 0.66 7.26 1.32 11 2 C11 2.33 11 2.66 11 3 C8.36 3 5.72 3 3 3 C3.66 4.98 4.32 6.96 5 9 C1.39760962 5.86243419 1.0042756 5.02137798 0 0 Z " fill="#54AFA4" transform="translate(4,67)"/>
<path d="M0 0 C0.66 0 1.32 0 2 0 C2.33 1.65 2.66 3.3 3 5 C2.01 5 1.02 5 0 5 C-0.33 7.31 -0.66 9.62 -1 12 C-1.66 11.01 -2.32 10.02 -3 9 C-2.5390625 6.73828125 -2.5390625 6.73828125 -1.625 4.3125 C-1.32851562 3.50425781 -1.03203125 2.69601563 -0.7265625 1.86328125 C-0.48679687 1.24839844 -0.24703125 0.63351563 0 0 Z " fill="#47BCB0" transform="translate(15,30)"/>
<path d="M0 0 C0.33 1.32 0.66 2.64 1 4 C1.66 3.67 2.32 3.34 3 3 C4.99960012 2.960008 7.00047242 2.95653201 9 3 C8.01 3.33 7.02 3.66 6 4 C6 4.66 6 5.32 6 6 C4.02 6 2.04 6 0 6 C0 4.02 0 2.04 0 0 Z " fill="#4CB8AE" transform="translate(106,67)"/>
<path d="M0 0 C0.99 0.33 1.98 0.66 3 1 C4.37407134 3.85384047 3.95284958 5.1634548 3.0625 8.25 C2.711875 9.1575 2.36125 10.065 2 11 C1.67 11 1.34 11 1 11 C0.67 7.37 0.34 3.74 0 0 Z " fill="#1A5F93" transform="translate(81,28)"/>
<path d="M0 0 C0.66 0 1.32 0 2 0 C2 2.31 2 4.62 2 7 C1.34 6.01 0.68 5.02 0 4 C-1.32 4.99 -2.64 5.98 -4 7 C-2.92598892 4.08482708 -2.22189824 2.22189824 0 0 Z " fill="#4AB9AE" transform="translate(80,0)"/>
<path d="M0 0 C1.32 0.66 2.64 1.32 4 2 C1.08235 3.9451 -0.62537285 4.45276317 -4 5 C-3 2 -3 2 0 0 Z " fill="#46B8AE" transform="translate(74,87)"/>
<path d="M0 0 C0.185625 0.9590625 0.185625 0.9590625 0.375 1.9375 C0.684375 2.9584375 0.684375 2.9584375 1 4 C1.66 4.33 2.32 4.66 3 5 C1.68 5.99 0.36 6.98 -1 8 C-2.2077558 4.37673261 -1.54311128 3.35853631 0 0 Z " fill="#48B8AF" transform="translate(72,78)"/>
</svg>
